<?xml version="1.0" encoding="UTF-8"?>
<svg data-name="圖層 1" viewBox="0 0 20.62 18.6" xmlns="http://www.w3.org/2000/svg">
  <defs>
    <style>.cls-1 {
      fill: #666;
      stroke-width: 0;
    }

    .cls-2 {
      fill: none;
      stroke: #666;
      stroke-linecap: round;
      stroke-linejoin: round;
      stroke-width: 1.2px;
    }</style>
  </defs>
  <path class="cls-1" d="m8.18,17.42c0,.65-.53,1.18-1.18,1.18s-1.18-.53-1.18-1.18.53-1.18,1.18-1.18,1.18.53,1.18,1.18Z"/>
  <path class="cls-1" d="m17.65,17.42c0,.65-.53,1.18-1.18,1.18s-1.18-.53-1.18-1.18.53-1.18,1.18-1.18,1.18.53,1.18,1.18Z"/>
  <path class="cls-2" d="m.6.6h.96c.67,0,1.19.39,1.34,1.14l2.2,10.79c0,.73.59,1.33,1.33,1.33h10.61c.73,0,1.33-.59,1.33-1.33l1.66-8.15c0-.52-.42-.95-.95-.95H3.62"/>
</svg>
